<svg xmlns="http://www.w3.org/2000/svg" width="14.712" height="16.813" viewBox="0 0 14.712 16.813">
  <path id="Icon_metro-files-empty" data-name="Icon metro-files-empty" d="M18.518,7.791a14.885,14.885,0,0,0-1.431-1.637,14.892,14.892,0,0,0-1.637-1.431,2.619,2.619,0,0,0-1.493-.693H7.914A1.315,1.315,0,0,0,6.6,5.343V17.428a1.315,1.315,0,0,0,1.314,1.314H17.9a1.315,1.315,0,0,0,1.314-1.314V9.284a2.619,2.619,0,0,0-.693-1.493ZM16.343,6.9a14.332,14.332,0,0,1,1.192,1.336H15.007V5.705A14.321,14.321,0,0,1,16.343,6.9ZM18.16,17.428a.266.266,0,0,1-.263.263H7.914a.266.266,0,0,1-.263-.263V5.343a.266.266,0,0,1,.263-.263h6.042V8.758a.525.525,0,0,0,.525.525H18.16ZM13.348,2.621a2.619,2.619,0,0,0-1.493-.693H5.812A1.315,1.315,0,0,0,4.5,3.242V15.326A1.316,1.316,0,0,0,5.55,16.613V3.242a.266.266,0,0,1,.263-.263h7.994c-.158-.13-.312-.251-.459-.358Z" transform="translate(-4.499 -1.928)" fill="#736032"/>
</svg>
