<svg xmlns="http://www.w3.org/2000/svg" width="19.823" height="14.349" viewBox="0 0 19.823 14.349">
  <path id="Path_202" data-name="Path 202" d="M16.77,8.267a3.149,3.149,0,0,0-.488-1.677h1.2a1.677,1.677,0,0,1,1.67,1.677v3.05a1.662,1.662,0,0,1-.595,1.273.762.762,0,0,0,.29,1.319A3.522,3.522,0,0,1,21.3,17.859H18.927a5.093,5.093,0,0,0-2.554-4.979C17.014,11.942,16.724,9.35,16.77,8.267Zm-5.337,5.1a.762.762,0,0,1-.541.572,3.522,3.522,0,0,0-2.47,3.919H17.4A3.522,3.522,0,0,0,14.94,13.94a.762.762,0,0,1-.29-1.319,1.662,1.662,0,0,0,.595-1.273V8.3a1.677,1.677,0,0,0-1.67-1.677H12.248A1.685,1.685,0,0,0,10.571,8.3v3.05a1.685,1.685,0,0,0,.595,1.273.762.762,0,0,1,.259.747Zm-1.982-.48c-.648-.953-.328-3.53-.4-4.62A3.149,3.149,0,0,1,9.542,6.59h-1.2a1.677,1.677,0,0,0-1.67,1.677v3.05a1.662,1.662,0,0,0,.595,1.273.762.762,0,0,1-.29,1.319,3.538,3.538,0,0,0-2.447,3.949H6.888a5.085,5.085,0,0,1,2.554-4.971Zm12.611,6.526H3.762a.762.762,0,1,0,0,1.525h18.3a.762.762,0,0,0,0-1.525Z" transform="translate(-3 -6.59)" fill="#736032"/>
</svg>
