<svg xmlns="http://www.w3.org/2000/svg" width="14.483" height="14.483" viewBox="0 0 14.483 14.483">
  <path id="Path_204" data-name="Path 204" d="M10.241,3a7.241,7.241,0,1,0,7.241,7.241A7.241,7.241,0,0,0,10.241,3Zm0,13.369a6.127,6.127,0,1,1,6.127-6.127A6.127,6.127,0,0,1,10.241,16.369ZM15.1,10.595l-1.114,1.114a.557.557,0,0,1-.788,0l-1.114-1.114a.557.557,0,1,1,.788-.788L13,9.932a2.77,2.77,0,1,0-1.3,2.684.557.557,0,0,1,.583.947,3.9,3.9,0,1,1,1.849-3.575l.184-.183a.557.557,0,1,1,.788.788Z" transform="translate(-3 -3)" fill="#fff"/>
</svg>
