<svg xmlns="http://www.w3.org/2000/svg" width="12.633" height="10.525" viewBox="0 0 12.633 10.525">
  <path id="Icon_ionic-ios-share-alt" data-name="Icon ionic-ios-share-alt" d="M17.023,11.17,12.382,6.829A.237.237,0,0,0,12.2,6.75c-.145.007-.329.109-.329.263V9.19a.141.141,0,0,1-.118.135c-4.615.707-6.559,4.161-7.246,7.746-.026.141.164.273.253.161A8.388,8.388,0,0,1,11.73,13.7a.163.163,0,0,1,.138.158V16a.282.282,0,0,0,.477.174l4.674-4.417a.363.363,0,0,0,.115-.276A.441.441,0,0,0,17.023,11.17Z" transform="translate(-4.502 -6.749)" fill="#c4ac7a"/>
</svg>
