<svg
                    class="me-1"
                    xmlns="http://www.w3.org/2000/svg"
                    width="26.993"
                    height="21.918"
                    viewBox="0 0 26.993 21.918"
                  >
                    <g
                      id="Group_303"
                      data-name="Group 303"
                      transform="translate(0 0)"
                    >
                      <path
                        id="Path_55"
                        data-name="Path 55"
                        d="M501.322,167.514c0,1.032-.006,2.064,0,3.1a.907.907,0,0,0,1.013.993q3.456,0,6.913,0a3.3,3.3,0,0,1,.337.009.421.421,0,0,1,.382.331.387.387,0,0,1-.168.472.466.466,0,0,0-.245.393,1.549,1.549,0,0,1-1.5,1.263,1.52,1.52,0,0,1-1.54-1.246c-.05-.253-.137-.331-.385-.313a7.383,7.383,0,0,1-.876,0c-.188-.008-.261.038-.3.245a1.549,1.549,0,0,1-3.073-.081.274.274,0,0,0-.214-.249A1.8,1.8,0,0,1,500.4,170.6c0-2.382,0-4.764-.006-7.145,0-.142.1-.362-.071-.418a.646.646,0,0,0-.585.04,1.556,1.556,0,0,1-1.021.261c-.652,0-1.3.007-1.956.01a2.954,2.954,0,0,1-2.632-1.422c-.386-.59-.387-.588-.754.032-.252.425-.508.847-.764,1.27a.89.89,0,0,0,.056,1.069q.21.285.434.559a4.408,4.408,0,0,1,.709,4.706c-.444,1.12-.869,2.248-1.307,3.37a1.655,1.655,0,1,1-3.125-1.087c.356-1.194.719-2.386,1.076-3.58a.739.739,0,0,0-.3-.97c-.227-.18-.459-.353-.723-.555-.147.7-.286,1.368-.424,2.033a4.463,4.463,0,0,1-1.211,2.216c-.639.664-1.268,1.337-1.9,2a1.641,1.641,0,1,1-2.292-2.328c.6-.558,1.2-1.118,1.806-1.671a.652.652,0,0,0,.223-.4q.5-3.179,1.008-6.358a10.663,10.663,0,0,1,.975-2.537.394.394,0,0,1,.582-.162.415.415,0,0,1,.22.566c-.19.468-.392.931-.594,1.394a2.709,2.709,0,0,0,.91,3.521q1.027.793,2.047,1.6a1.585,1.585,0,0,1,.583,1.827q-.539,1.817-1.085,3.631c-.154.514.013.9.44,1.041a.744.744,0,0,0,.949-.571c.263-.738.557-1.464.822-2.2.2-.559.485-1.1.65-1.674a3.327,3.327,0,0,0-.609-3.052c-.2-.26-.408-.509-.6-.773a1.792,1.792,0,0,1-.107-2.086c.382-.661.77-1.32,1.183-1.962a.382.382,0,0,0-.049-.549c-.27-.3-.521-.619-.774-.934a.477.477,0,0,1,.027-.715.486.486,0,0,1,.683.128,20.782,20.782,0,0,1,1.979,2.639,2.092,2.092,0,0,0,1.967,1.067c.663-.013,1.326-.009,1.99-.009.188,0,.4,0,.4-.244s-.217-.247-.395-.259c-.572-.038-1.144-.076-1.716-.106a1.2,1.2,0,0,1-1.192-.911c-.11-.354-.251-.7-.359-1.052a4.879,4.879,0,0,0-1.737-2.345.636.636,0,0,0-.464-.148,2.53,2.53,0,0,1-1.809-.6.377.377,0,0,0-.395-.084,4.145,4.145,0,0,0-1.156.537c-.311.207-.572.188-.739-.045s-.085-.509.239-.728a4.165,4.165,0,0,1,1.079-.544c.18-.057.239-.117.174-.323a2.6,2.6,0,1,1,4.1,1.212c-.161.136-.21.2-.023.364a6.35,6.35,0,0,1,1.873,3.173c.154.55.177.545.755.587q.773.056,1.547.109a1.136,1.136,0,0,1,1.109.867c.045.156.092.214.262.219a.853.853,0,0,1,.945.969c0,1.314-.009,2.628-.014,3.942,0,.09.01.179.016.269C501.131,167.362,501.141,167.438,501.322,167.514Zm-14.138-2.77c-.232,1.413-.453,2.73-.663,4.05a1.383,1.383,0,0,1-.451.84c-.614.561-1.221,1.13-1.83,1.7a.881.881,0,0,0-.293.4.716.716,0,0,0,1.228.674c.716-.746,1.433-1.491,2.132-2.252a3.252,3.252,0,0,0,.789-1.505c.17-.765.3-1.537.468-2.3a.333.333,0,0,0-.143-.4A4.493,4.493,0,0,1,487.183,164.744Zm4.355-9.982a1.678,1.678,0,1,0,1.7-1.681A1.677,1.677,0,0,0,491.538,154.761Zm11.893,18.4a.647.647,0,0,0,.578-.42c.069-.152.034-.229-.15-.222-.235.009-.471-.008-.7.007-.121.008-.306-.086-.35.081-.036.136.078.275.186.376A.639.639,0,0,0,503.432,173.157Zm4.594-.639c-.134,0-.269.009-.4,0-.264-.021-.248.1-.158.28a.614.614,0,0,0,1.032.136c.089-.1.19-.224.135-.355s-.2-.047-.305-.057S508.126,172.518,508.026,172.518Z"
                        transform="translate(-482.992 -152.161)"
                        fill="#3e3643"
                      />
                      <path
                        id="Path_56"
                        data-name="Path 56"
                        d="M765.938,323h-2.832c-.718,0-1.038-.31-1.038-1.016,0-.8,0-1.6.012-2.394a.851.851,0,0,1,.941-.939c.755-.012.755-.012.755-.774,0-.6,0-1.191,0-1.787a.86.86,0,0,1,.972-.978c.809,0,1.619,0,2.428,0a.858.858,0,0,1,.948.966c0,.764.009,1.529,0,2.293,0,.216.053.3.277.279a3.727,3.727,0,0,1,.606,0,.832.832,0,0,1,.821.854q.015,1.315,0,2.63a.835.835,0,0,1-.921.858C767.917,323.009,766.927,323,765.938,323Zm-.449-2.533c0-.213-.008-.427,0-.639.011-.181-.036-.258-.239-.254-.673.012-1.346.01-2.019,0-.179,0-.256.034-.252.236.012.672.009,1.344,0,2.017,0,.176.026.259.235.255.683-.014,1.366-.008,2.049,0,.177,0,.236-.059.23-.235-.012-.37-.005-.74-.007-1.11.206-.407.558-.326.9-.271q0,.671,0,1.342c0,.169.016.285.255.278.672-.021,1.346-.014,2.019,0,.194,0,.249-.061.247-.249-.009-.662-.014-1.324,0-1.985.005-.232-.078-.28-.29-.274-.493.014-.987,0-1.481,0-.74,0-.74,0-.744.753A4.427,4.427,0,0,0,765.489,320.47ZM764.7,317.3c0,.336,0,.673,0,1.009,0,.144.015.225.195.223.706-.01,1.413-.01,2.119,0,.151,0,.194-.049.193-.191q-.007-1.06,0-2.12c0-.146-.049-.193-.195-.192q-1.06.009-2.12,0c-.148,0-.195.053-.192.2C764.7,316.581,764.7,316.94,764.7,317.3Z"
                        transform="translate(-743.238 -304.118)"
                        fill="#3e3643"
                      />
                      <path
                        id="Path_57"
                        data-name="Path 57"
                        d="M752.724,376.513c-.181-.075-.191-.152,0-.231A.245.245,0,0,1,752.724,376.513Z"
                        transform="translate(-734.394 -361.16)"
                        fill="#787878"
                      />
                      <path
                        id="Path_58"
                        data-name="Path 58"
                        d="M499.971,338.648a4.493,4.493,0,0,0,1.238,1.205.333.333,0,0,1,.143.4c-.164.766-.3,1.539-.468,2.3a3.251,3.251,0,0,1-.789,1.505c-.7.761-1.416,1.506-2.132,2.252a.716.716,0,0,1-1.228-.674.881.881,0,0,1,.293-.4c.609-.567,1.215-1.136,1.83-1.7a1.383,1.383,0,0,0,.451-.84C499.517,341.379,499.738,340.061,499.971,338.648Z"
                        transform="translate(-495.779 -326.065)"
                        fill="#c4ac7a"
                      />
                      <path
                        id="Path_59"
                        data-name="Path 59"
                        d="M609.655,167.462a1.678,1.678,0,1,1,1.657,1.683A1.688,1.688,0,0,1,609.655,167.462Z"
                        transform="translate(-601.109 -164.861)"
                        fill="#c4ac7a"
                      />
                      <path
                        id="Path_60"
                        data-name="Path 60"
                        d="M777.168,454.294a.64.64,0,0,1-.441-.177c-.108-.1-.222-.24-.186-.376.044-.167.229-.074.35-.081.234-.015.47,0,.7-.007.184-.007.219.07.15.222A.647.647,0,0,1,777.168,454.294Z"
                        transform="translate(-756.728 -433.298)"
                        fill="#fefefe"
                      />
                      <path
                        id="Path_61"
                        data-name="Path 61"
                        d="M845.448,453.712c.1,0,.2-.008.3,0s.254-.063.305.057-.046.254-.135.355a.614.614,0,0,1-1.032-.136c-.091-.176-.107-.3.158-.28C845.179,453.721,845.314,453.712,845.448,453.712Z"
                        transform="translate(-820.414 -433.355)"
                        fill="#fefefe"
                      />
                      <path
                        id="Path_62"
                        data-name="Path 62"
                        d="M826.207,382.029c0-.753,0-.753.744-.753.494,0,.987.01,1.481,0,.212-.006.3.042.29.274-.015.661-.011,1.324,0,1.985,0,.188-.052.253-.247.249-.673-.011-1.346-.018-2.019,0-.239.008-.255-.109-.255-.278q0-.671,0-1.342C826.237,382.122,826.267,382.078,826.207,382.029Z"
                        transform="translate(-803.04 -365.813)"
                        fill="#c4ac7a"
                      />
                      <path
                        id="Path_63"
                        data-name="Path 63"
                        d="M801.008,329.918c0-.359,0-.718,0-1.077,0-.143.043-.2.192-.2q1.06.009,2.12,0c.146,0,.2.046.195.192q-.007,1.06,0,2.12c0,.142-.043.193-.193.191-.706-.007-1.413-.008-2.12,0-.18,0-.2-.079-.195-.223C801.012,330.591,801.008,330.254,801.008,329.918Z"
                        transform="translate(-779.547 -316.737)"
                        fill="#c4ac7a"
                      />
                      <path
                        id="Path_64"
                        data-name="Path 64"
                        d="M778.146,382.429c0,.37-.005.74.007,1.11.006.177-.054.237-.23.235-.683-.008-1.366-.013-2.049,0-.209,0-.237-.079-.235-.255.008-.672.011-1.345,0-2.017,0-.2.073-.238.252-.236.673.009,1.346.011,2.019,0,.2,0,.249.072.239.254-.013.212,0,.426,0,.639A.3.3,0,0,0,778.146,382.429Z"
                        transform="translate(-755.891 -365.807)"
                        fill="#c4ac7a"
                      />
                      <path
                        id="Path_65"
                        data-name="Path 65"
                        d="M812.348,392.9a.3.3,0,0,1,0-.27,4.423,4.423,0,0,1,.915-.136c.06.049.03.093-.009.135C812.906,392.572,812.554,392.491,812.348,392.9Z"
                        transform="translate(-790.094 -376.277)"
                        fill="#787878"
                      />
                    </g>
                  </svg>