<svg xmlns="http://www.w3.org/2000/svg" width="10.948" height="13.138" viewBox="0 0 10.948 13.138">
  <path id="Path_40" data-name="Path 40" d="M8,9.306V1.642A1.642,1.642,0,0,1,9.642,0h7.664a1.642,1.642,0,0,1,1.642,1.642V9.306a1.642,1.642,0,0,1-1.642,1.642h-2.19V9.854h2.19a.547.547,0,0,0,.547-.547V1.642a.547.547,0,0,0-.547-.547H9.642a.547.547,0,0,0-.547.547V9.306a.547.547,0,0,0,.547.547h2.19v1.095H9.642A1.642,1.642,0,0,1,8,9.306Zm2.9-2.9a.547.547,0,0,0,.774,0l1.255-1.255v7.437a.547.547,0,1,0,1.095,0V5.154l1.255,1.255a.547.547,0,1,0,.774-.774l-2.19-2.19a.547.547,0,0,0-.774,0L10.9,5.635a.547.547,0,0,0,0,.774Z" transform="translate(-8)" fill="#005dff"/>
</svg>
